<svg width="21" height="20" viewBox="0 0 21 20" fill="none" xmlns="http://www.w3.org/2000/svg">
<path fill-rule="evenodd" clip-rule="evenodd" d="M18.0001 10.1741C18.0001 9.63101 17.9514 9.10877 17.8608 8.60742H10.647V11.5703H14.7692C14.5916 12.5277 14.052 13.3389 13.2408 13.882V15.8039H15.7162C17.1645 14.4704 18.0001 12.5068 18.0001 10.1741Z" fill="#4285F4"/>
<path fill-rule="evenodd" clip-rule="evenodd" d="M10.6466 17.6595C12.7146 17.6595 14.4485 16.9736 15.7158 15.8038L13.2404 13.8819C12.5545 14.3415 11.6771 14.6131 10.6466 14.6131C8.65162 14.6131 6.96304 13.2657 6.36073 11.4553H3.80176V13.4398C5.06209 15.943 7.6524 17.6595 10.6466 17.6595Z" fill="#34A853"/>
<path fill-rule="evenodd" clip-rule="evenodd" d="M6.36097 11.4553C6.20778 10.9957 6.12074 10.5048 6.12074 10C6.12074 9.49516 6.20778 9.00426 6.36097 8.54469V6.56018H3.802C3.28324 7.59421 2.9873 8.76403 2.9873 10C2.9873 11.236 3.28324 12.4058 3.802 13.4398L6.36097 11.4553Z" fill="#FBBC05"/>
<path fill-rule="evenodd" clip-rule="evenodd" d="M10.6466 5.38691C11.7711 5.38691 12.7808 5.77337 13.5746 6.53235L15.7715 4.33547C14.445 3.0995 12.7112 2.34052 10.6466 2.34052C7.6524 2.34052 5.06209 4.05694 3.80176 6.56021L6.36073 8.54472C6.96304 6.73429 8.65162 5.38691 10.6466 5.38691Z" fill="#EA4335"/>
</svg>
